<?xml version="1.0" encoding="UTF-8" standalone="no"?>
<svg width="37px" height="32px" viewBox="0 0 37 32" version="1.1" xmlns="http://www.w3.org/2000/svg" xmlns:xlink="http://www.w3.org/1999/xlink">
    <!-- Generator: Sketch 43.2 (39069) - http://www.bohemiancoding.com/sketch -->
    <title>nav-broadcasts-icon-white</title>
    <desc>Created with Sketch.</desc>
    <defs></defs>
    <g id="assets" stroke="none" stroke-width="1" fill="none" fill-rule="evenodd">
        <g id="nav-broadcasts-icon-white" transform="translate(-3.000000, -3.000000)" fill-rule="nonzero" fill="#FFFFFF">
            <g id="Page-1" transform="translate(21.679600, 18.953790) rotate(-11.000000) translate(-21.679600, -18.953790) translate(3.179600, 3.953790)">
                <path d="M27.0565604,7.93189033 C26.7872643,7.93189033 26.5296766,7.75632172 26.4187537,7.46438787 C26.2696241,7.07582324 26.4335435,6.62669424 26.7872643,6.45929161 L33.9411751,3.10443409 C34.2948959,2.93975345 34.7016132,3.12076605 34.8513591,3.51137218 C35.0004888,3.89925631 34.8365694,4.34906581 34.4828486,4.51646844 L27.3264728,7.87064547 C27.2395832,7.91351687 27.145915,7.93189033 27.0565604,7.93189033 Z" id="Fill-1"></path>
                <path d="M34.2110875,23.7963515 C34.121733,23.7963515 34.0280647,23.7772975 33.9411751,23.7351066 L26.7872643,20.3802491 C26.4353922,20.2155685 26.2696241,19.7664395 26.4187537,19.3758333 C26.5678834,18.9872687 26.9746007,18.8042146 27.3289378,18.9688952 L34.4828486,22.3237528 C34.8341045,22.4884334 35.0004888,22.9375624 34.8513591,23.3281685 C34.7379713,23.6207829 34.4803837,23.7963515 34.2110875,23.7963515 Z" id="Fill-2"></path>
                <path d="M35.4213796,14.2401113 L35.414601,14.2401113 L27.0473168,14.135995 C26.6646328,14.1312315 26.3565137,13.7855383 26.3608273,13.3629487 C26.3657572,12.9403592 26.6954448,12.6001099 27.0614903,12.6048734 L35.4287745,12.7089897 C35.8114585,12.7144337 36.1195776,13.0594464 36.1146477,13.482036 C36.1103341,13.902584 35.8022149,14.2401113 35.4213796,14.2401113 Z" id="Fill-3"></path>
                <path d="M22.5241275,26.6775821 C22.3768465,26.6775821 22.2301818,26.6272252 22.1100153,26.5258309 C14.8279269,20.5183903 7.12494765,20.2128465 5.65460298,20.2128465 C5.46418533,20.2128465 5.35819234,20.2182905 5.34894876,20.2182905 C5.05007317,20.2291784 4.77338216,20.0325144 4.66738916,19.7208461 C2.40209704,13.0281435 4.58789442,7.33917615 4.68217888,7.10032119 C4.79002059,6.8233583 5.03589969,6.6457482 5.3076608,6.64030421 C14.6017674,6.49399704 19.6617004,2.41917211 22.0933769,0.460016975 C22.3047466,0.289892354 22.5839026,0.266074907 22.8149919,0.396050118 C23.0485463,0.526025328 23.1933623,0.789378242 23.1933623,1.0792706 C23.1933623,2.58113075 23.1982922,8.53821448 23.2026059,14.2693727 C23.2075358,19.5881489 23.2124657,24.712983 23.2124657,25.9120213 C23.2124657,26.2019136 23.0658009,26.4679885 22.8297817,26.5952418 C22.7379622,26.6510426 22.6325854,26.6775821 22.5241275,26.6775821 Z" id="Fill-4"></path>
                <path d="M5.3076608,20.2155685 L3.84902465,20.186307 C1.75011688,20.186307 0.0961331805,17.2091262 0.0961331805,13.4078616 C0.0961331805,9.6065971 1.75011688,6.62669424 3.86134942,6.62669424 L5.50793825,6.62669424 L5.50793825,8.15781583 L3.86134942,8.15781583 C2.73671445,8.15781583 1.48266944,10.313635 1.48266944,13.4078616 C1.48266944,16.5020882 2.73671445,18.6551854 3.86134942,18.6551854 L5.33415904,18.6844469 L5.3076608,20.2155685 Z" id="Fill-5"></path>
                <path d="M9.14497692,29.4370034 C7.94824207,29.4370034 6.97581797,28.3631768 6.97581797,27.0416488 L6.97581797,18.7960486 L11.3135196,19.4901571 L11.3135196,27.0416488 C11.3135196,28.3631768 10.3410955,29.4370034 9.14497692,29.4370034 Z M8.36235423,20.5667057 L8.36235423,27.0416488 C8.36235423,27.5179977 8.71422632,27.9058818 9.14497692,27.9058818 C9.57572752,27.9058818 9.92698337,27.5179977 9.92698337,27.0416488 L9.92698337,20.8164486 L8.36235423,20.5667057 Z" id="Fill-6"></path>
            </g>
        </g>
    </g>
</svg>