<?xml version="1.0" encoding="UTF-8" standalone="no"?>
<svg width="36px" height="35px" viewBox="0 0 36 35" version="1.1" xmlns="http://www.w3.org/2000/svg" xmlns:xlink="http://www.w3.org/1999/xlink">
    <!-- Generator: Sketch 43.2 (39069) - http://www.bohemiancoding.com/sketch -->
    <title>Page-1-Copy</title>
    <desc>Created with Sketch.</desc>
    <defs></defs>
    <g id="icons" stroke="none" stroke-width="1" fill="none" fill-rule="evenodd">
        <path d="M7.1411896,12.2545884 C7.1411896,5.483205 13.4063932,0 21.0992204,0 C28.7951192,0 35.0603228,5.483205 35.0603228,12.2545884 C35.0603228,15.1559078 33.908518,17.8287092 31.9747146,19.9474157 C32.3439064,20.9149317 32.9895314,22.0206642 34.1867941,22.8032772 C34.5086851,22.9881803 34.417155,23.4489022 34.0479632,23.4943601 C32.8046283,23.6792631 30.6859219,23.724721 28.7035891,22.5274583 C26.4915096,23.7726361 23.9120812,24.5091768 21.1016776,24.5091768 C13.4063932,24.5091768 7.1411896,19.0259719 7.1411896,12.2545884 Z M22.4252196,13.8282213 L22.4252196,12.9006211 C22.4252196,12.6223397 22.4612926,12.4136317 22.5334397,12.274491 C22.6055867,12.1353503 22.7524553,11.9575621 22.9740497,11.7411209 C23.1956442,11.5246798 23.4301186,11.2927821 23.6774798,11.0454208 C23.7290134,10.9938872 23.8295025,10.880515 23.9789499,10.7053008 C24.1283973,10.5300865 24.2237331,10.3986778 24.2649599,10.3110707 C24.3061868,10.2234636 24.3783328,10.0791717 24.4814,9.87819063 C24.5844672,9.6772096 24.636,9.37058928 24.636,8.95832048 C24.636,8.0307157 24.334533,7.30410284 23.7315899,6.77846013 C23.1286467,6.25281741 22.3453478,5.99 21.3816695,5.99 C20.4179912,5.99 19.6166557,6.28373711 18.9776391,6.87122014 C18.3386224,7.45870318 17.9624328,8.26776855 17.8490589,9.29844054 L20.3071993,9.29844054 C20.3484262,8.9170919 20.4592217,8.61047159 20.6395893,8.37857039 C20.8199569,8.14666919 21.0441247,8.03072033 21.3120995,8.03072033 C21.5800742,8.03072033 21.796512,8.1286327 21.9614196,8.32446038 C22.1263271,8.52028806 22.2087796,8.76506898 22.2087796,9.0588105 C22.2087796,9.35255202 22.1314804,9.59217966 21.9768796,9.77770062 L20.9255994,10.8599008 C20.5751709,11.220636 20.3458498,11.5066432 20.2376293,11.7179309 C20.1294087,11.9292187 20.0752993,12.2461456 20.0752993,12.6687211 L20.0752993,13.8282213 L22.4252196,13.8282213 Z M19.9206992,16.9113875 C19.9206992,17.2927361 20.0521079,17.6148163 20.3149293,17.8776377 C20.5777507,18.140459 20.8998308,18.2718677 21.2811795,18.2718677 C21.6625281,18.2718677 21.9846083,18.140459 22.2474296,17.8776377 C22.510251,17.6148163 22.6416597,17.2927361 22.6416597,16.9113875 C22.6416597,16.5300389 22.510251,16.2079587 22.2474296,15.9451373 C21.9846083,15.682316 21.6625281,15.5509073 21.2811795,15.5509073 C20.8998308,15.5509073 20.5777507,15.682316 20.3149293,15.9451373 C20.0521079,16.2079587 19.9206992,16.5300389 19.9206992,16.9113875 Z M2.5794284,30.5925489 C0.9669017,28.8405771 0,26.6303405 0,24.1879001 C0,20.6409557 2.0732486,17.5528903 5.1588568,15.7100027 C6.9108286,22.1601094 13.3609353,26.9522315 21.0992204,26.9522315 C21.6993875,26.9522315 22.2510252,26.9067736 22.8511923,26.8607014 C21.5144844,31.1896445 17.0012527,34.3692399 11.6544214,34.3692399 C9.3053539,34.3692399 7.1387324,33.7690729 5.3437598,32.7112554 C3.6857753,33.6781571 1.9338034,33.6781571 0.9214438,33.493254 C0.645625,33.4477961 0.5516377,33.07799 0.7819987,32.8937012 C1.7489004,32.2959914 2.3036095,31.3745475 2.5794284,30.5925489 Z" id="Page-1-Copy" fill="#FFFFFF" fill-rule="nonzero"></path>
    </g>
</svg>