<?xml version="1.0" encoding="UTF-8"?>
<svg fill="#3C3EFF" width="100pt" height="100pt" version="1.1" viewBox="0 0 100 100" xmlns="http://www.w3.org/2000/svg">
  <path d="m56.152 13.637c-20.082 0-36.363 16.281-36.363 36.363 0 2.2148 0.21875 4.3711 0.59766 6.4766l-12.625-12.633-3.2188 3.2188 18.184 18.184 0.011719-0.015625 1.5977 1.6016 1.5938-1.6016 0.011718 0.015625 18.184-18.184-3.2188-3.2188-15.25 15.258c-0.875-2.9375-1.3203-5.9883-1.3203-9.1016 0-17.547 14.27-31.816 31.816-31.816s31.816 14.27 31.816 31.816-14.27 31.816-31.816 31.816v4.5469c20.082 0 36.363-16.281 36.363-36.363s-16.281-36.363-36.363-36.363" fill-rule="evenodd"/>
</svg>
